<svg id="Слой_1" data-name="Слой 1" xmlns="http://www.w3.org/2000/svg" viewBox="0 0 312.05 158"><title>sign_streamly_black</title><path d="M153.225,202.6a15.8,15.8,0,1,1,0-31.6h23.7a15.8,15.8,0,0,1,0,31.6Zm115.06726-28.4387C266.02165,172.89873,260.6823,171,257.9,171H228.275a15.8,15.8,0,0,0,0,31.6h15.8a15.8,15.8,0,1,1,0,31.6h-55.3a15.8,15.8,0,1,0,0,31.6h55.3a15.8,15.8,0,1,1,0,31.6H214.45a15.8,15.8,0,1,0,0,31.6H257.9a15.73984,15.73984,0,0,0,6.69027-1.48221L390.947,272.74743a24.698,24.698,0,0,0-.13433-45.55121ZM163.1,329a15.8,15.8,0,0,0,0-31.6H109.775a15.8,15.8,0,0,0,0,31.6Zm-51.35-79a15.8,15.8,0,0,0,15.8,15.8h9.875a15.80017,15.80017,0,0,0,.105-31.6h-9.98A15.8,15.8,0,0,0,111.75,250Z" transform="translate(-93.975 -171)"/></svg>