<svg id="Слой_1" data-name="Слой 1" xmlns="http://www.w3.org/2000/svg" viewBox="0 0 231 119.56664"><title>sign_streamly_line</title><path d="M255.71442,302.2655h-31.4306a14.06709,14.06709,0,0,1,0-28.13419H245.7144a8.791,8.791,0,0,0,0-17.582H205.71259a14.06709,14.06709,0,0,1,0-28.13419H245.7144a8.79145,8.79145,0,0,0,0-17.5829H234.28556a14.06666,14.06666,0,0,1,0-28.13333h21.42886c2.65843,0,6.90367,1.60055,8.676,2.5511l88.51643,38.31625a20.50261,20.50261,0,0,1,.07556,37.79933l-91.37922,39.61025A13.86493,13.86493,0,0,1,255.71442,302.2655ZM224.28382,279.407a8.79145,8.79145,0,0,0,0,17.5829h31.4306a8.71944,8.71944,0,0,0,3.72146-.82346l91.47024-39.65061A15.22778,15.22778,0,0,0,350.846,228.422l-88.89424-38.49313a19.24612,19.24612,0,0,0-6.23735-1.95432H234.28556a8.791,8.791,0,0,0,0,17.582H245.7144a14.06709,14.06709,0,0,1,0,28.13419H205.71259a8.79145,8.79145,0,0,0,0,17.5829H245.7144a14.06666,14.06666,0,1,1,0,28.13333ZM187.13965,302.2655h-38.573a14.06709,14.06709,0,0,1,0-28.13419h38.573a14.06709,14.06709,0,0,1,0,28.13419Zm-38.573-22.85854a8.79145,8.79145,0,0,0,0,17.5829h38.573a8.79145,8.79145,0,0,0,0-17.5829Zm20.00176-22.85768h-7.1441a14.06709,14.06709,0,0,1,0-28.13419H168.644a14.0672,14.0672,0,0,1-.07556,28.13419Zm-7.1441-22.85854a8.79145,8.79145,0,0,0,0,17.5829h7.1441a8.79162,8.79162,0,0,0,.07556-17.5829Zm35.71535-22.85854h-17.1424a14.06666,14.06666,0,0,1,0-28.13333h17.1424a14.06666,14.06666,0,1,1,0,28.13333Zm-17.1424-22.85768a8.791,8.791,0,1,0,0,17.582h17.1424a8.791,8.791,0,1,0,0-17.582Z" transform="translate(-134.5 -182.69886)"/></svg>