<svg id="Слой_1" data-name="Слой 1" xmlns="http://www.w3.org/2000/svg" viewBox="0 0 32 16.56334"><title>sign_streamly_line_favicon</title><path d="M250.79161,250.76385h-4.354a1.94869,1.94869,0,0,1,0-3.89738h2.96874a1.2178,1.2178,0,1,0,0-2.43561h-5.54138a1.94869,1.94869,0,0,1,0-3.89738h5.54138a1.21786,1.21786,0,0,0,0-2.43573h-1.58322a1.94863,1.94863,0,0,1,0-3.89726h2.9685a3.2728,3.2728,0,0,1,1.20186.3534l12.262,5.30788a2.84019,2.84019,0,0,1,.01047,5.23627l-12.65859,5.48713A1.92068,1.92068,0,0,1,250.79161,250.76385Zm-4.354-3.16655a1.21786,1.21786,0,0,0,0,2.43573h4.354a1.20789,1.20789,0,0,0,.51553-.11407l12.6712-5.49273a2.10948,2.10948,0,0,0-.00833-3.89179l-12.31435-5.33238a2.66613,2.66613,0,0,0-.864-.27073h-2.9685a1.2178,1.2178,0,0,0,0,2.43561h1.58322a1.94869,1.94869,0,0,1,0,3.89738h-5.54138a1.21786,1.21786,0,0,0,0,2.43573h5.54138a1.94863,1.94863,0,1,1,0,3.89726Zm-5.14551,3.16655h-5.34344a1.94869,1.94869,0,0,1,0-3.89738h5.34344a1.94869,1.94869,0,0,1,0,3.89738Zm-5.34344-3.16655a1.21786,1.21786,0,0,0,0,2.43573h5.34344a1.21786,1.21786,0,0,0,0-2.43573Zm2.77081-3.16643h-.98966a1.94869,1.94869,0,0,1,0-3.89738h1.00013a1.9487,1.9487,0,0,1-.01047,3.89738Zm-.98966-3.16655a1.21786,1.21786,0,0,0,0,2.43573h.98966a1.21789,1.21789,0,0,0,.01047-2.43573Zm4.94758-3.16655h-2.37471a1.94863,1.94863,0,0,1,0-3.89726h2.37471a1.94863,1.94863,0,1,1,0,3.89726Zm-2.37471-3.16643a1.2178,1.2178,0,0,0,0,2.43561h2.37471a1.2178,1.2178,0,1,0,0-2.43561Z" transform="translate(-234 -234.20051)"/></svg>