<svg id="Слой_1" data-name="Слой 1" xmlns="http://www.w3.org/2000/svg" xmlns:xlink="http://www.w3.org/1999/xlink" viewBox="0 0 242 122.53165"><defs><style>.cls-1{fill:url(#Безымянный_градиент_22);}</style><linearGradient id="Безымянный_градиент_22" x1="174.2482" y1="250" x2="356.54356" y2="250" gradientUnits="userSpaceOnUse"><stop offset="0" stop-color="#c35beb"/><stop offset="0.37692" stop-color="#638cef"/><stop offset="0.77179" stop-color="#03cdf3"/><stop offset="1" stop-color="#19e9de"/></linearGradient></defs><title>sign_streamly_color</title><path class="cls-1" d="M174.94937,213.24051a12.25316,12.25316,0,1,1,0-24.50633h18.37975a12.25316,12.25316,0,1,1,0,24.50633ZM264.186,191.18582c-1.7609-.97915-5.90166-2.45164-8.05937-2.45164H233.1519a12.25316,12.25316,0,0,0,0,24.50633h12.25316a12.25316,12.25316,0,0,1,0,24.50633H202.519a12.25316,12.25316,0,0,0,0,24.50633h42.88608a12.25316,12.25316,0,0,1,0,24.50633H222.43038a12.25316,12.25316,0,0,0,0,24.50633h33.6962a12.20651,12.20651,0,0,0,5.18841-1.14948L359.30676,267.641a19.15368,19.15368,0,0,0-.10418-35.32573Zm-81.57836,120.08a12.25316,12.25316,0,1,0,0-24.50633H141.25316a12.25316,12.25316,0,1,0,0,24.50633ZM142.78481,250A12.25316,12.25316,0,0,0,155.038,262.25316h7.65823a12.2533,12.2533,0,0,0,.08139-24.50633H155.038A12.25316,12.25316,0,0,0,142.78481,250Z" transform="translate(-129 -188.73418)"/></svg>