<svg id="Слой_1" data-name="Слой 1" xmlns="http://www.w3.org/2000/svg" xmlns:xlink="http://www.w3.org/1999/xlink" viewBox="0 0 32 16.20253"><defs><style>.cls-1{fill:url(#Безымянный_градиент_22);}</style><linearGradient id="Безымянный_градиент_22" x1="239.98323" y1="250" x2="264.0884" y2="250" gradientUnits="userSpaceOnUse"><stop offset="0" stop-color="#c35beb"/><stop offset="0.37692" stop-color="#638cef"/><stop offset="0.77179" stop-color="#03cdf3"/><stop offset="1" stop-color="#19e9de"/></linearGradient></defs><title>sign_streamly_color_32x32</title><path class="cls-1" d="M240.07595,245.13924a1.62025,1.62025,0,1,1,0-3.24051h2.43038a1.62025,1.62025,0,1,1,0,3.24051Zm11.79988-2.91632a2.99846,2.99846,0,0,0-1.0657-.32418h-3.038a1.62025,1.62025,0,1,0,0,3.24051h1.62025a1.62025,1.62025,0,0,1,0,3.24051h-5.67089a1.62025,1.62025,0,0,0,0,3.24051h5.67089a1.62025,1.62025,0,0,1,0,3.24051h-3.038a1.62025,1.62025,0,1,0,0,3.24051h4.4557a1.61408,1.61408,0,0,0,.68607-.152l12.95759-5.61657a2.53272,2.53272,0,0,0-.01378-4.67117Zm-10.78722,15.87835a1.62025,1.62025,0,1,0,0-3.24051h-5.46835a1.62025,1.62025,0,1,0,0,3.24051ZM235.82278,250a1.62025,1.62025,0,0,0,1.62025,1.62025h1.01266a1.62027,1.62027,0,0,0,.01076-3.24051H237.443A1.62025,1.62025,0,0,0,235.82278,250Z" transform="translate(-234 -241.89873)"/></svg>