<svg id="Слой_1" data-name="Слой 1" xmlns="http://www.w3.org/2000/svg" viewBox="0 0 415.81046 101.81215"><title>logo_streamly_line</title><path d="M221.3276,241.55292c-6.1509-5.907-15.83316-8.759-22.00373-13.08489-6.65742-4.66265-6.03858-9.99923-1.887-13.03151,7.09715-5.183,29.05617-3.27929,20.77518,10.20076-7.76642,12.32413,9.89843,8.97163,9.89843-5.44755,0-21.30683-42.93946-19.55266-42.93946.92579,0,17.09655,32.04436,18.20753,32.04436,31.61733,0,13.49534-30.86961,16.12454-30.86961,1.78027,0-2.78154.89035-5.27807.89035-6.6223,0-3.541-4.62212-3.21663-7.42382-.23145-10.34169,11.01854,7.97337,31.691,33.09441,22.27062C227.85182,264.32892,229.81264,249.70385,221.3276,241.55292Z" transform="translate(-42.09477 -199.09392)"/><path d="M456.19628,250.91714c-3.39092,4.88208-7.60543,10.37079-12.74669,13.28047,4.39246-28.7029,6.43072-29.018,2.06509-29.018-10.36927,0-6.13486,17.22786-12.85344,24.38951-1.84754,1.974-4.54065,1.51732-5.038-1.83364-1.38678-9.32859,5.55586-20.53145,2.7953-22.46662-1.46813-1.02664-3.51306-.66907-5.12686.21351-5.38764,2.94383-6.81135,19.58366-7.37045,19.95657-1.74877,1.16546-5.29238,3.41791-7.40632,3.41791-.88109,0-2.9622-3.3916-.872-9.471,2.11672-6.183,19.22311-29.74891,16.77011-45.0938-1.58646-9.81076-15.06734-7.10377-23.42828,20.02788-8.99659,29.20373,2.128,30.07278-8.91884,34.3947-7.8,3.04687,1.10654-21.53575-2.7953-24.47833-7.25381-5.47048-13.17831,15.51683-15.07824,13.4406,0-3.07138,5.36968-14.313-1.67394-14.313-7.27376,0-13.73294,24.14826-11.57151,9.96932,1.72544-10.79564.36218-9.96932-3.06177-9.96932-2.19323,0-2.86545.35426-3.84578,3.48922-4.76215,14.76608-.49348,16.761-6.85375,21.36319-11.5319,8.34429,2.32643-22.11091-5.10892-22.11091a8.808,8.808,0,0,1-3.38289-.24938c-1.2529-.51954-1.16859-2.42123-3.347-2.42123-7.03374,0-13.23969,6.71419-16.3781,13.12076-4.10652,8.37467.05731,6.511-6.83666,10.45015-5.56781,3.18138-10.76038,4.86257-13.60074-.24938,13.151-3.62767,17.93262-15.23607,11.73208-20.9178-3.43759-3.145-9.91576-3.64746-14.77676.78316-6.14225,5.60085-4.726,11.10992-6.81788,11.981-7.50334,3.13014-6.365-3.565-5.26948-10.20076,1.00652-6.18132-6.46732-8.08894-11.50063,1.887-2.21154,4.37852-2.06509,5.37251-2.06509-3.68522,0-2.92943-.085-3.23984-2.56386-3.23984-2.08416,0-2.75639.30676-3.52466,2.42123-1.31175,3.32286-2.69111,11.02714-3.2472,14.93252-3.771,4.01939-14.91405,12.06372-18.79239,7.26721-1.72756-2.13655-1.429-5.90323-1.3178-8.88382.36055-9.6575-.14516-7.42922,2.33241-10.66366,2.85721-3.72657-.49-2.79488,15.7555-2.79488a2.58429,2.58429,0,0,0,2.2786-2.81281c0-4.07461-2.50118-1.78869-11.99939-2.84825,16.60247-26.28033-6.5866-42.31871-14.81092-1.17517-2.03128.40771-13.08357-1.49169-10.504,3.43584.75976,1.45583,2.50452.97112,6.60436,1.74482,4.55251.86356,2.22565-1.08675,2.22565,9.8805,0,33.65378,15.59231,23.18376,27.38381,16.34122.01615,3.832.68225,7.336,4.51835,7.336,2.275,0,3.17964-2.45526,4.02343-4.80659,9.96017-27.76448,5.01571-16.89074,9.11527-9.38216,2.46115,4.51538,7.32038,4.77284,12.03654,2.6459,1.911,11.13391,13.05648,16.16,27.768,6.22693,2.592,5.72317,9.52354,7.79438,16.98544,1.61319,4.26359-3.53181-.00176-2.27579,4.80659,2.36742,3.33873,3.22681,8.28239.88575,11.82906-2.08575,1.00056,3.73286,4.26609,3.965,6.205,2.90478,1.969-1.0768,5.29967-10.08773,9.75581-18.71051,5.88853-11.41415-7.38257,24.641,5.71444,18.71051,2.06792-.93626,1.74062-1.18536,9.29291-20.41946,1.26423,0-2.159,15.79879,2.33241,20.0992,4.405,4.22384,15.58671-5.49455,15.63-5.39418,3.705,8.59019,8.38289,7.29936,17.60708,2.20729,1.31658-.75653,2.00012,4.09474,8.04685,4.09474,2.9136,0,5.87777-1.88216,8.04685-3.80991-1.34579,4.63376.1824,1.99515-6.03557,7.72616-5.07679,4.68158-12.082,11.96221-14.68709,18.3548-5.39009,13.239,18.40834,19.5004,26.063-10.36133,2.70747-10.564-.58351-5.29065,8.11859-11.8384,2.91677-2.189,7.2588-5.72864,9.07854-8.86589Zm-212.04592-27.772c4.26118-17.059,8.66324-11.78061,6.60436-5.73238-.69347,2.04221-4.77213,12.019-6.94257,11.803C242.45864,229.081,242.448,229.95036,244.15036,223.14517Zm55.63277,25.7782c.83189-12.79775,12.55108-9.272,7.72658-2.70606a12.5439,12.5439,0,0,1-5.00217,3.93418C299.20783,251.58778,299.67165,250.63829,299.78313,248.92337Zm36.38848,1.7444c-1.29264,10.36442-8.9009,13.66478-8.9009,5.3408,0-6.05843,5.1216-15.80845,11.07275-15.80845Zm81.5711-32.88133a116.03423,116.03423,0,0,1-9.57731,21.27394C408.1654,214.55649,424.43516,196.38811,417.74271,217.78644Zm5.056,69.89283a41.6289,41.6289,0,0,1,10.3972-11.0198C429.15537,296.7986,416.28847,297.81376,422.79868,287.67927Z" transform="translate(-42.09477 -199.09392)"/><path d="M111.02348,271.30794H93.15092a7.99927,7.99927,0,0,1,0-15.99854h12.186a4.999,4.999,0,0,0,0-9.998H82.58989a7.99927,7.99927,0,1,1,0-15.99854H105.337a4.99927,4.99927,0,0,0,0-9.99854H98.83744a7.999,7.999,0,0,1,0-15.998h12.186a13.42925,13.42925,0,0,1,4.93311,1.45068l50.335,21.78857a11.65883,11.65883,0,0,1,.04395,21.49463l-51.96338,22.52441A7.88107,7.88107,0,0,1,111.02348,271.30794ZM93.15092,258.3094a4.99927,4.99927,0,0,0,0,9.99854h17.87256a4.95832,4.95832,0,0,0,2.11621-.46826l52.01465-22.54736a8.65914,8.65914,0,0,0-.03467-15.97559l-50.55029-21.88916a10.932,10.932,0,0,0-3.5459-1.11133h-12.186a4.999,4.999,0,0,0,0,9.998H105.337a7.99927,7.99927,0,0,1,0,15.99854H82.58989a4.99927,4.99927,0,1,0,0,9.99854H105.337a7.999,7.999,0,0,1,0,15.998ZM72.02836,271.30794H50.09379a7.99927,7.99927,0,0,1,0-15.99854H72.02836a7.99927,7.99927,0,1,1,0,15.99854ZM50.09379,258.3094a4.99927,4.99927,0,0,0,0,9.99854H72.02836a4.99927,4.99927,0,1,0,0-9.99854Zm11.37354-12.998h-4.062a7.99927,7.99927,0,0,1,0-15.99854h4.10547a7.99933,7.99933,0,0,1-.04346,15.99854Zm-4.062-12.99854a4.99927,4.99927,0,0,0,0,9.99854h4.062a4.99936,4.99936,0,0,0,.04346-9.99854Zm20.31006-12.99854H67.96684a7.999,7.999,0,1,1,0-15.998h9.74854a7.999,7.999,0,0,1,0,15.998Zm-9.74854-12.998a4.999,4.999,0,1,0,0,9.998h9.74854a4.999,4.999,0,0,0,0-9.998Z" transform="translate(-42.09477 -199.09392)"/></svg>